On a weekend trip to Hawaii, a plastic surgeon convinces his loyal assistant to pose as his soon-to-be-divorced wife in order to cover up a careless lie he told to his much-younger girlfriend.

Director:
Dennis Dugan
Writers:
Allan Loeb (screenplay), Timothy Dowling (screenplay), and 4 more credits »
Stars:
Adam Sandler, Jennifer Aniston and Brooklyn Decker

Media info:

General
Complete name                    : E:\torrent2\Just.Go.With.It.2011.BluRay.rip .mkv.1080p.AVC.DTS 5.1.ACB-Team\Just.Go.With.It.2011.BluRay.rip .mkv.1080p.AVC.DTS 5.1.ACB-Team.mkv
Format                           : Matroska
File size                        : 12.2 GiB
Duration                         : 1h 56mn
Overall bit rate                 : 15.0 Mbps
Movie name                       : movie
Encoded date                     : UTC 2011-05-31 13:05:47
Writing application              : mkvmerge v3.2.0 ('Beginnings') built on Feb 12 2010 16:46:17
Writing library                  : libebml v0.7.9 + libmatroska v0.8.1

Video
ID                               : 1
Format                           : AVC
Format/Info                      : Advanced Video Codec
Format profile                   : High@L4.1
Format settings, CABAC           : Yes
Format settings, ReFrames        : 3 frames
Muxing mode                      : Container profile=Unknown@0.0
Codec ID                         : V_MPEG4/ISO/AVC
Duration                         : 1h 56mn
Bit rate mode                    : Variable
Bit rate                         : 13.5 Mbps
Maximum bit rate                 : 35.0 Mbps
Width                            : 1 920 pixels
Height                           : 1 080 pixels
Display aspect ratio             : 16:9
Frame rate                       : 23.976 fps
Color space                      : YUV
Chroma subsampling               : 4:2:0
Bit depth                        : 8 bits
Scan type                        : Progressive
Bits/(Pixel*Frame)               : 0.271
Stream size                      : 10.7 GiB (88%)
Writing library                  : x264 core 115 r1937 aa21558
Encoding settings                : cabac=1 / ref=1 / deblock=1:0:0 / analyse=0x3:0x3 / me=dia / subme=1 / psy=1 / psy_rd=0.00:0.00 / mixed_ref=0 / me_range=16 / chroma_me=1 / trellis=0 / 8x8dct=1 / cqm=0 / deadzone=21,11 / fast_pskip=1 / chroma_qp_offset=0 / threads=3 / sliced_threads=0 / slices=4 / nr=0 / decimate=1 / interlaced=0 / bluray_compat=1 / constrained_intra=0 / bframes=3 / b_pyramid=1 / b_adapt=1 / b_bias=0 / direct=1 / weightb=1 / open_gop=0 / weightp=1 / keyint=24 / keyint_min=1 / scenecut=40 / intra_refresh=0 / rc_lookahead=0 / rc=abr / mbtree=0 / bitrate=13481 / ratetol=1.0 / qcomp=0.60 / qpmin=0 / qpmax=69 / qpstep=4 / vbv_maxrate=35000 / vbv_bufsize=30000 / nal_hrd=vbr / ip_ratio=1.10 / pb_ratio=1.10 / aq=1:1.00

Audio
ID                               : 2
Format                           : DTS
Format/Info                      : Digital Theater Systems
Codec ID                         : A_DTS
Duration                         : 1h 56mn
Bit rate mode                    : Constant
Bit rate                         : 1 510 Kbps
Channel(s)                       : 6 channels
Channel positions                : Front: L C R, Side: L R, LFE
Sampling rate                    : 48.0 KHz
Bit depth                        : 24 bits
Stream size                      : 1.23 GiB (10%)
Language                         : English

Text #1
ID                               : 3
Format                           : VobSub
Muxing mode                      : zlib
Codec ID                         : S_VOBSUB
Codec ID/Info                    : The same subtitle format used on DVDs
Language                         : English

Text #2
ID                               : 4
Format                           : VobSub
Muxing mode                      : zlib
Codec ID                         : S_VOBSUB
Codec ID/Info                    : The same subtitle format used on DVDs
Language                         : French

Text #3
ID                               : 5
Format                           : VobSub
Muxing mode                      : zlib
Codec ID                         : S_VOBSUB
Codec ID/Info                    : The same subtitle format used on DVDs
Language                         : Spanish

Text #4
ID                               : 6
Format                           : UTF-8
Codec ID                         : S_TEXT/UTF8
Codec ID/Info                    : UTF-8 Plain Text
Language                         : Dutch

Menu
00:00:00.000                     : en:00:00:00.000
00:05:03.136                     : en:00:05:03.136
00:13:04.408                     : en:00:13:04.408
00:21:29.121                     : en:00:21:29.121
00:29:15.837                     : en:00:29:15.837
00:34:19.098                     : en:00:34:19.098
00:44:11.106                     : en:00:44:11.106
00:49:54.616                     : en:00:49:54.616
00:56:02.317                     : en:00:56:02.317
01:03:24.967                     : en:01:03:24.967
01:08:33.025                     : en:01:08:33.025
01:16:15.654                     : en:01:16:15.654
01:24:45.997                     : en:01:24:45.997
01:31:30.776                     : en:01:31:30.776
01:39:27.294                     : en:01:39:27.294
01:46:09.863                     : en:01:46:09.863




